<?xml version="1.0" standalone="no"?>
<!DOCTYPE svg PUBLIC "-//W3C//DTD SVG 20010904//EN"
 "http://www.w3.org/TR/2001/REC-SVG-20010904/DTD/svg10.dtd">
<svg version="1.0" xmlns="http://www.w3.org/2000/svg"
 width="600.000000pt" height="487.000000pt" viewBox="0 0 600.000000 487.000000"
 preserveAspectRatio="xMidYMid meet">
<metadata>
Created by potrace 1.13, written by Peter Selinger 2001-2015
</metadata>
<g transform="translate(0.000000,487.000000) scale(0.100000,-0.100000)"
fill="#000000" stroke="none">
<path d="M4863 4854 c-85 -30 -208 -172 -289 -330 -32 -64 -39 -89 -42 -150
-5 -87 18 -171 55 -206 22 -20 35 -23 106 -23 95 0 143 19 231 91 30 24 56 40
59 37 18 -17 -68 -115 -147 -167 -33 -22 -50 -26 -116 -26 -152 0 -230 46
-230 136 0 24 -4 44 -8 44 -13 0 -100 -77 -307 -270 -233 -218 -272 -252 -371
-327 -175 -131 -264 -173 -456 -216 l-143 -32 -325 1 c-182 0 -380 6 -450 13
-149 15 -433 68 -622 116 -155 40 -259 45 -349 19 -30 -9 -106 -43 -169 -76
-63 -34 -158 -83 -210 -111 -52 -27 -100 -53 -105 -58 -6 -4 -50 -22 -98 -39
-143 -52 -239 -125 -274 -209 -11 -26 -17 -119 -24 -385 -12 -496 -26 -606
-100 -791 -49 -123 -67 -154 -169 -291 -104 -140 -125 -185 -150 -319 -17 -89
-33 -136 -85 -246 -35 -74 -67 -147 -70 -162 -7 -26 -5 -27 29 -27 41 0 154
48 176 74 10 12 18 67 27 170 9 116 20 179 48 275 49 170 57 185 125 226 142
87 204 217 254 535 3 19 17 131 31 247 35 301 70 453 104 453 22 0 138 -323
171 -479 42 -190 67 -465 51 -561 -12 -76 -19 -84 -173 -181 -121 -77 -192
-138 -218 -189 -12 -24 -36 -140 -65 -316 -58 -357 -68 -390 -142 -478 -77
-91 -112 -139 -113 -152 0 -6 -11 -33 -25 -60 -31 -61 -32 -95 -1 -131 39 -47
46 -69 46 -141 0 -105 -1 -104 218 -100 99 2 183 6 187 10 10 9 -24 56 -113
158 -96 109 -107 134 -92 208 34 165 231 479 427 678 97 99 145 128 318 190
178 64 355 175 540 340 114 101 211 213 330 379 53 74 102 135 110 135 16 0
65 -56 65 -75 0 -19 -40 -65 -195 -225 -72 -74 -187 -204 -255 -288 -233 -286
-247 -318 -165 -390 24 -21 129 -83 232 -137 103 -54 206 -110 228 -125 54
-37 112 -95 130 -129 17 -33 35 -137 35 -203 0 -40 4 -50 30 -68 19 -14 33
-36 40 -63 6 -23 14 -50 17 -61 10 -34 247 -125 291 -112 27 9 52 60 52 107 0
94 -61 169 -313 387 -204 177 -306 282 -344 354 -24 46 -28 64 -28 143 0 74 4
98 23 137 33 67 73 93 142 93 51 0 61 -4 144 -62 107 -75 144 -81 214 -34 89
61 292 127 601 197 181 41 229 46 267 28 38 -18 75 -63 99 -120 19 -47 54 -85
115 -127 101 -69 314 -295 408 -433 82 -121 107 -201 122 -391 13 -174 17
-188 51 -227 19 -22 33 -52 39 -87 6 -29 17 -63 25 -76 43 -65 201 -140 317
-149 81 -7 184 15 194 41 8 20 -38 116 -91 190 -54 76 -113 130 -206 185 -167
102 -215 197 -319 645 -23 99 -65 250 -93 335 -55 172 -72 300 -47 360 23 56
35 29 40 -91 5 -125 14 -150 63 -179 42 -26 163 -28 213 -4 40 19 110 95 129
139 49 113 55 136 55 213 l0 79 -62 7 c-34 3 -71 13 -84 20 -26 18 -37 71 -59
301 -20 203 -38 299 -74 406 -38 114 -52 138 -104 181 -25 21 -73 72 -108 114
l-62 76 44 -22 c142 -72 281 -198 326 -297 22 -48 25 -74 38 -316 16 -309 24
-343 92 -360 49 -11 101 13 158 75 103 111 143 209 210 506 54 243 105 369
223 547 65 98 197 232 282 285 97 61 121 80 115 91 -10 15 -65 10 -180 -16
-141 -32 -287 -34 -343 -6 -46 24 -96 76 -88 90 12 18 41 12 66 -13 28 -31
100 -56 159 -56 25 0 92 11 148 25 90 22 122 24 260 22 141 -2 167 1 243 22
74 21 91 30 131 71 30 30 55 69 69 106 40 108 12 163 -113 223 -45 21 -117 55
-160 76 -54 25 -101 58 -155 109 -43 40 -110 91 -148 114 -182 106 -386 150
-479 102 -22 -11 -48 -20 -60 -20 -34 0 -81 35 -99 75 -15 31 -16 44 -6 82 20
80 68 156 172 271 21 23 36 47 33 52 -9 14 -53 11 -102 -6z"/>
<path d="M5355 4629 c-25 -77 -49 -120 -84 -153 -17 -17 -31 -35 -31 -43 0
-32 80 -44 130 -18 21 11 31 25 36 51 9 49 -2 157 -19 191 l-14 26 -18 -54z"/>
</g>
</svg>
